Coordinates
version=1
nRows=7
nColumns=40
inDegrees=yes

Units are S.I. units (second, meters, Newtons, ...)
Angles are in degrees.

endheader
time	pelvis_tilt	pelvis_list	pelvis_rotation	pelvis_tx	pelvis_ty	pelvis_tz	hip_flexion_r	hip_adduction_r	hip_rotation_r	knee_angle_r	knee_angle_r_beta	ankle_angle_r	subtalar_angle_r	mtp_angle_r	hip_flexion_l	hip_adduction_l	hip_rotation_l	knee_angle_l	knee_angle_l_beta	ankle_angle_l	subtalar_angle_l	mtp_angle_l	lumbar_extension	lumbar_bending	lumbar_rotation	arm_flex_r	arm_add_r	arm_rot_r	elbow_flex_r	pro_sup_r	wrist_flex_r	wrist_dev_r	arm_flex_l	arm_add_l	arm_rot_l	elbow_flex_l	pro_sup_l	wrist_flex_l	wrist_dev_l
     30.60500000	     -6.18079953	     -5.43986812	      0.48087529	      1.06234664	      0.91390404	      0.48813775	     26.30722036	      1.31636553	    -15.70069355	     22.82855254	     22.82855254	      4.83765933	     -2.50176783	     -2.44219797	     16.64787500	    -12.57688656	     -0.86700322	     52.62152251	     52.62152251	     14.20824452	    -18.27998774	      3.10893339	    -11.95574383	      6.55663229	      4.34770392	    -10.71756177	    -11.53701992	      1.26312419	     25.97239729	     46.10153737	      0.00000000	      0.00000000	     23.23428886	    -17.24531409	      1.73485979	    101.19629949	     47.97753368	      0.00000000	      0.00000000
     30.61657143	     -6.29896662	     -5.66834927	      0.90688292	      1.06070481	      0.91510444	      0.49020060	     25.61498333	      1.58838854	    -16.37190286	     22.21640606	     22.21640606	      5.22977694	     -1.97291408	     -2.55043459	     19.14586094	    -13.13970162	     -0.36094728	     56.11314266	     56.11314266	     13.48288365	    -18.76860255	      4.44058544	    -11.91088535	      6.82261540	      4.25912256	     -9.13523033	    -11.78437598	      1.28358900	     26.54226373	     46.09154163	      0.00000000	      0.00000000	     21.56951558	    -16.82896338	      2.01345703	     99.05763966	     47.91569101	      0.00000000	      0.00000000
     30.62814286	     -6.30449662	     -5.61900223	      1.25122076	      1.05898862	      0.91657657	      0.49196892	     24.85063666	      1.54176036	    -17.04961691	     21.71146406	     21.71146406	      5.60333362	     -1.07784176	     -2.92134005	     21.62836563	    -13.13114822	      0.32293423	     59.63238074	     59.63238074	     15.42348345	    -18.84310198	     12.56833074	    -11.95143584	      6.78943220	      4.72744457	     -7.61378712	    -12.10557284	      1.71634488	     26.86200454	     46.06491910	      0.00000000	      0.00000000	     20.73045141	    -15.48207137	      1.84160185	     94.89913649	     47.87830259	      0.00000000	      0.00000000
     30.63971429	     -6.30334201	     -5.76263517	      1.57945631	      1.05731374	      0.91793394	      0.49397160	     24.02061442	      1.81891681	    -17.47520221	     21.04938418	     21.04938418	      5.86670001	     -0.58564989	     -3.01000499	     23.91343941	    -13.62557342	      0.59853371	     62.33813000	     62.33813000	     15.40170333	    -19.06411016	     14.35147556	    -12.05186352	      6.87995437	      4.51615508	     -5.79403061	    -12.40920878	      1.66584963	     27.68757094	     46.05222909	      0.00000000	      0.00000000	     19.06571961	    -15.30111979	      2.19721362	     92.16873672	     47.81038872	      0.00000000	      0.00000000
     30.65128571	     -6.31574610	     -5.82383617	      1.85155436	      1.05561564	      0.91915991	      0.49579804	     23.28241933	      1.98951648	    -17.91077451	     20.53382304	     20.53382304	      6.17051150	     -0.07061226	     -3.25941952	     26.16550929	    -13.95551379	      0.87638598	     64.66001904	     64.66001904	     15.95432672	    -19.20050145	     16.97945610	    -12.08701193	      6.90146936	      4.96638645	     -4.18436050	    -12.78864474	      1.61872187	     28.27193395	     46.04828912	      0.00000000	      0.00000000	     17.93539237	    -14.29652119	      2.25496488	     88.56708079	     47.75524023	      0.00000000	      0.00000000
     30.66285714	     -6.31861803	     -5.91488017	      2.09718758	      1.05388417	      0.92028938	      0.49765320	     22.55119206	      2.24439170	    -18.15655218	     20.01577599	     20.01577599	      6.45672012	      0.23504912	     -3.30320111	     28.30356544	    -14.35031818	      1.09717819	     66.42161869	     66.42161869	     15.86679857	    -19.28206041	     17.25149256	    -12.17907687	      6.88493724	      5.00601277	     -2.33449944	    -13.16858791	      1.45747204	     29.05108024	     46.04393057	      0.00000000	      0.00000000	     16.14164880	    -14.03478436	      2.62082875	     86.32665935	     47.68289007	      0.00000000	      0.00000000
     30.67442857	     -6.29192952	     -5.91291601	      2.35203273	      1.05210876	      0.92148458	      0.49920496	     21.76826841	      2.37415397	    -18.49419070	     19.46325795	     19.46325795	      6.71660658	      0.69141309	     -3.39571014	     30.33090306	    -14.58515255	      1.25756936	     67.70097912	     67.70097912	     16.04504376	    -19.32727925	     17.94317222	    -12.27089091	      6.88284627	      4.85844647	     -0.19353198	    -13.47249357	      1.26543985	     29.86707104	     46.04215679	      0.00000000	      0.00000000	     14.70461023	    -13.66570587	      2.56530043	     82.46851333	     47.61332505	      0.00000000	      0.00000000
